<?xml version="1.0" encoding="utf-8"?>
<!-- Svg Vector Icons : http://www.onlinewebfonts.com/icon -->
<!DOCTYPE svg PUBLIC "-//W3C//DTD SVG 1.1//EN" "http://www.w3.org/Graphics/SVG/1.1/DTD/svg11.dtd">
<svg version="1.1" xmlns="http://www.w3.org/2000/svg" xmlns:xlink="http://www.w3.org/1999/xlink" x="0px" y="0px" viewBox="0 0 1000 1000" enable-background="new 0 0 1000 1000" xml:space="preserve">
<metadata> Svg Vector Icons : http://www.onlinewebfonts.com/icon </metadata>
<g><g transform="translate(0.000000,511.000000) scale(0.100000,-0.100000)"><path d="M1354.5,4254.8c-405.4-101.8-764.6-463-858.8-858.8c-32.7-144.1-36.5-395.8-7.7-539.9c11.5-55.7,55.7-174.8,98-263.2c103.7-217.1,305.5-422.7,516.8-526.4c760.8-374.6,1644.5,132.6,1702.2,976c19.2,290.1-98,630.1-295.9,853c-115.3,132.5-338.1,278.6-503.3,330.4C1846.4,4277.9,1504.4,4293.3,1354.5,4254.8z"/><path d="M3665.7,3167.4c-96.1-38.4-96.1-25-105.7-941.4l-9.6-858.8l-413.1,197.9L2724.4,1763h-328.5l-328.5,1.9l-226.7-261.3c-182.5-211.3-230.5-255.5-249.8-234.4c-11.5,13.4-109.5,130.6-217.1,257.4l-194,234.4l-130.6-25c-71.1-13.5-284.3-53.8-470.7-88.4l-342-61.5l-7.7-59.6c-5.8-32.7-19.2-474.5-30.7-981.7c-11.5-507.2-25-954.8-28.8-993.3l-9.6-73h199.8c163.3,0,201.7-5.8,211.3-30.7c5.8-17.3,11.5-111.4,11.5-213.3c0-165.2,3.8-182.5,38.4-192.1c38.4-9.6,38.4-26.9,38.4-1281.4v-1269.9l-272.8-57.6L111.5-3624l-5.8-215.2l-5.8-217.1h226.7c132.6,0,313.2,15.4,434.2,36.5c199.8,32.6,205.6,32.6,205.6-1.9c0-32.7,19.2-34.6,269-34.6h269v1316v1316h144.1h144.1v-1316v-1316h259.4c217.1,0,259.4,3.8,259.4,28.8c0,36.5,38.4,36.5,259.4,0c96.1-15.4,274.7-28.8,399.6-28.8H3197l-5.8,215.2l-5.8,215.2l-272.8,57.6l-274.7,57.6v1273.7c0,1260.3,0,1273.7,38.4,1273.7c28.8,0,38.4,13.4,38.4,53.8c-1.9,155.6,82.6,1823.2,92.2,1850.1c11.5,26.9,71.1,3.8,378.5-136.4l365-165.2l9.6-914.5c9.6-864.5,11.5-916.4,46.1-954.8c36.5-40.4,40.3-40.4,1508.1-44.2l1471.6-5.8l5.8-432.3l3.8-432.3l-854.9-854.9c-776.2-776.2-854.9-860.7-854.9-916.4c0-82.6,57.6-140.2,138.3-140.2c55.7,0,136.4,73,816.5,753.1l755,755v-693.5v-693.6l44.2-40.3c55.7-51.9,128.7-53.8,188.3-5.8l46.1,36.5l9.6,693.6l9.6,693.5l749.3-749.3c672.4-672.4,755-749.3,810.8-749.3c67.2,0,140.2,73,140.2,142.2c0,26.9-272.8,313.1-854.9,895.3l-854.9,854.9v447.6v445.7h1469.7h1467.8l40.3,42.3c38.4,42.3,38.4,55.7,38.4,2172.9c0,1352.5-7.7,2142.1-19.2,2165.2c-9.6,19.2-46.1,44.2-78.8,55.7C9729,3190.5,3727.2,3194.3,3665.7,3167.4z M9611.8,1025.3V-847.9H6730H3848.3v672.4c0,370.8,3.8,672.4,7.7,672.4c3.8,0,161.4-69.2,349.7-153.7c186.3-84.5,343.9-153.7,347.7-153.7c1.9,0,5.8,155.6,5.8,347.7v345.8l-355.4,171l-355.4,171v837.6v835.7H6730h2881.8V1025.3z"/><path d="M8219,1987.8c-130.6-55.7-209.4-226.7-163.3-347.8c21.1-53.8,15.4-61.5-353.5-430.3l-376.5-376.6l-155.6,1.9h-153.7l-230.5,230.5c-224.8,224.8-230.5,232.5-209.4,286.3c51.9,138.3-65.3,336.2-219,365c-211.3,40.4-411.1-174.8-338.1-365c21.1-53.8,15.4-61.5-357.3-434.2l-376.5-378.5l-119.1,9.6c-94.1,5.8-128.7,0-180.6-30.7C4745.4,366.3,4841.5-21.8,5122-21.8c207.5,0,340,171,288.2,367l-19.2,71.1l378.5,378.5l378.5,378.5l74.9-21.1c53.8-13.5,98-13.5,149.9,0l74.9,21.1l226.7-226.7L6901,721.7L6889.5,595c-7.7-111.4-3.9-134.5,34.6-192.1c130.7-186.4,411.1-172.9,505.3,25c34.6,73,40.3,197.9,11.5,242.1c-13.4,23.1,63.4,109.5,357.3,405.4l376.6,376.5l128.7-7.7c159.5-9.6,236.3,30.8,292,159.5C8705,1847.6,8461,2093.5,8219,1987.8z"/></g></g>
</svg>